PathFileType	4	(X/Y/Z)	C:/Users/beibeiliu/ov580/test_trc/User2\sequence.33_training_dense_left.trc
DataRate	CameraRate	NumFrames	NumMarkers	Units	OrigDataRate	OrigDataStartFrame	OrigNumFrames
120	120	11	19	mm	120	266	424
Frame#	Time	ThumbCMC			ThumbMCP			ThumbIP			ThumbTip			IndexMCP			IndexPIP			IndexTip			MiddleMCP			MiddlePIP			MiddleTip			RingMCP			RingPIP			RingTip			PinkyMCP			PinkyPIP			PinkyTip			BackHand1			BackHand2			BackHand3	
		X0	Y0	Z0	X1	Y1	Z1	X2	Y2	Z2	X3	Y3	Z3	X4	Y4	Z4	X5	Y5	Z5	X6	Y6	Z6	X7	Y7	Z7	X8	Y8	Z8	X9	Y9	Z9	X10	Y10	Z10	X11	Y11	Z11	X12	Y12	Z12	X13	Y13	Z13	X14	Y14	Z14	X15	Y15	Z15	X16	Y16	Z16	X17	Y17	Z17	X18	Y18	Z18	
265	2.20833	-225.813	-21.6405	32.2476	-205.38	-19.29	10.2326	-187.951	-21.6331	-21.5581	-179.444	-44.644	-39.0416	-232.187	-69.1324	-30.7596	-196.953	-74.6913	-39.3626	-182.518	-62.899	-12.7874	-228.206	-90.8206	-26.9183	-192.162	-94.6394	-27.0751	-183.713	-70.397	6.23572	-217.934	-106.694	-15.4816	-187.243	-103.31	-8.19284	-190.411	-79.2179	16.1154	-215.474	-119.891	5.48668	-184.973	-103.194	10.4485	-195.143	-82.7753	31.7364	-259.607	-87.1142	35.6405	-262.895	-75.1206	64.5626	-260.982	-45.657	35.825	
266	2.21667	-226.379	-21.9551	32.9448	-206.812	-19.9935	8.29683	-189.107	-22.8112	-21.1174	-179.219	-45.1474	-38.4562	-229.794	-71.1984	-30.3134	-197.374	-74.6757	-40.937	-180.389	-59.844	-13.0087	-224.558	-94.8922	-24.7695	-187.308	-92.4013	-25.4894	-181.982	-67.0804	9.43977	-215.509	-107.27	-13.0998	-184.124	-101.754	-7.73017	-189.668	-76.0977	22.9181	-208.821	-118.682	5.70055	-179.717	-102.318	13.0622	-192.438	-79.7457	32.1663	-257.22	-88.8386	33.1562	-258.795	-77.9194	68.3745	-259.305	-48.1394	37.8157	
267	2.225	-226.768	-21.7682	34.4439	-206.556	-16.8202	6.6928	-188.537	-24.1456	-18.4736	-176.632	-44.6746	-39.673	-227.871	-71.4025	-30.5511	-191.689	-73.509	-36.364	-180.687	-57.4001	-4.97782	-218.662	-94.8754	-26.0066	-185.018	-91.3704	-24.4662	-179.273	-64.7694	7.80237	-211.624	-110.304	-8.20704	-179.117	-97.8826	-4.60779	-185.066	-75.9284	21.6197	-206.642	-117.235	8.30134	-177.793	-100.831	13.4727	-188.339	-78.8446	34.475	-253.711	-93.906	37.5282	-256.549	-78.4168	71.1712	-257.51	-51.4474	39.4829	
268	2.23333	-227.988	-20.8527	36.1124	-207.664	-19.6966	9.11657	-188.438	-23.7259	-23.4585	-175.592	-42.924	-36.1963	-221.396	-71.7294	-32.964	-191.147	-74.2057	-36.4899	-180.118	-54.4677	-2.41261	-215.488	-96.3136	-22.7141	-178.631	-89.322	-18.1912	-177.528	-65.8172	9.45156	-205.405	-110.481	-6.19738	-177.277	-96.8342	-2.95145	-184.15	-75.1533	21.8997	-200.379	-120.951	12.4613	-175.16	-99.4773	15.2094	-190.567	-77.9822	37.2421	-251.508	-94.1978	38.783	-256.083	-77.0405	71.7636	-257.901	-55.9253	37.1922	
269	2.24167	-228.566	-18.4828	37.2744	-207.45	-16.4342	6.91126	-189.166	-23.4169	-19.5868	-174.588	-46.4323	-38.377	-220.867	-72.7866	-27.9371	-187.117	-75.3098	-31.6068	-179.23	-53.6304	-2.68997	-214.599	-97.3486	-17.6776	-178.411	-91.2853	-17.7565	-178.103	-65.7631	14.1445	-201.322	-107.213	-7.40735	-173.029	-93.2072	1.89045	-187.011	-73.0509	30.338	-199.9	-119.201	15.5823	-172.389	-98.6184	19.8054	-185.907	-79.1002	39.89	-247.516	-93.203	40.8087	-257.045	-75.9692	69.7617	-256.117	-51.171	39.8438	
270	2.25	-228.509	-24.7704	38.329	-207.596	-17.799	6.85329	-188.296	-23.3995	-20.8911	-173.906	-43.3065	-35.7755	-218.003	-75.8781	-27.9354	-184.719	-77.0954	-27.9176	-178.039	-55.5219	0.121504	-208.812	-96.5269	-20.2236	-174.978	-90.3226	-14.8571	-181.716	-62.4012	17.9089	-199.234	-108.142	-3.81975	-170.302	-97.8424	4.74191	-188.024	-70.7291	30.3724	-197.098	-118.432	18.6068	-171.586	-97.798	20.4253	-188.474	-75.877	45.1908	-245.96	-94.9884	41.3522	-253.174	-78.3444	71.709	-257.116	-55.7741	39.9042	
271	2.25833	-229.167	-23.7977	36.7095	-207.937	-17.2156	6.73371	-188.205	-22.365	-19.8546	-174.329	-45.5775	-30.9429	-214.058	-76.3636	-28.8058	-182.011	-72.5546	-27.5938	-179.49	-53.4413	4.84648	-204.698	-98.7587	-17.6931	-173.055	-86.769	-15.1839	-178.067	-62.6444	16.7102	-197.345	-107.661	-0.0957282	-169.063	-91.6006	5.6878	-184.503	-72.1994	32.2031	-192.199	-115.445	19.2977	-167.849	-92.2722	28.0751	-191.554	-76.5897	46.4025	-242.991	-98.6939	40.8874	-253.366	-79.0365	71.9339	-253.288	-58.0642	38.9925	
272	2.26667	-229.246	-21.7499	39.2081	-209.438	-18.4758	12.7245	-187.894	-24.8548	-20.8722	-173.225	-40.7356	-30.7048	-213.411	-78.9006	-23.0162	-182.092	-73.4691	-27.0075	-177.72	-55.5651	4.51406	-202.624	-98.6875	-15.701	-169.259	-85.6779	-6.94907	-178.46	-61.0976	18.363	-190.878	-106.897	0.462181	-166.748	-91.8091	6.3094	-184.327	-69.0227	31.9382	-189.865	-116.561	22.9903	-165.832	-91.6682	29.8796	-185.694	-76.7192	48.5415	-242.185	-97.6442	46.1853	-252.992	-78.0381	74.0754	-252.83	-56.965	41.6312	
273	2.275	-229.593	-22.8955	37.2916	-209.005	-17.0083	13.8276	-188.296	-25.157	-16.1505	-172.144	-40.8527	-29.2631	-213.018	-73.4753	-23.9467	-178.825	-69.2057	-25.5676	-178.29	-48.7068	5.09669	-201.862	-95.5575	-13.4689	-167.394	-86.5502	-7.71142	-177.638	-58.3476	20.8393	-186.895	-108.24	3.02053	-164.212	-89.6897	8.17478	-184.382	-67.7364	35.5626	-187.412	-113.789	23.7528	-163.232	-88.8711	33.3506	-184.873	-71.5526	47.622	-240.629	-96.7325	46.1443	-250.741	-78.9871	74.7691	-251.193	-60.3575	42.5012	
274	2.28333	-228.475	-24.4849	39.7152	-209.002	-14.3344	12.1128	-187.277	-20.4384	-18.5801	-169.486	-38.4728	-31.1187	-207.152	-76.593	-20.4133	-175.746	-69.7482	-21.6068	-178.15	-48.8173	9.93228	-197.818	-94.938	-13.4555	-164.71	-78.5649	-8.18029	-176.1	-56.107	22.1157	-183.693	-106.666	5.27701	-160.075	-88.4104	12.6512	-180.495	-67.9654	36.608	-179.352	-113.154	25.5678	-160.455	-87.1791	34.5208	-184.843	-70.3991	51.6911	-235.959	-94.875	43.6089	-247.301	-80.6813	70.993	-251.689	-59.213	43.7119	
275	2.29167	-229.224	-21.5402	37.4147	-208.688	-14.1403	11.7604	-187.011	-20.0404	-17.9927	-167.529	-40.7894	-31.6875	-204.894	-73.3757	-22.6994	-171.109	-62.7742	-19.4883	-176.533	-44.5121	10.4843	-191.152	-93.0173	-11.8804	-161.507	-73.3678	-5.29081	-177.133	-56.3967	27.0672	-182.765	-102.156	4.63875	-156.688	-83.7002	13.922	-181.717	-64.1056	37.237	-177.829	-108.652	24.8624	-158.381	-82.5143	32.1298	-184.164	-70.2429	50.6792	-230.557	-97.4588	46.2324	-245.008	-84.035	73.2788	-248.431	-59.9141	40.4737	
